<?xml version="1.0" encoding="UTF-8" standalone="no"?>
<!-- Created with Inkscape (http://www.inkscape.org/) -->

<svg
   width="84.443611mm"
   height="37.122166mm"
   viewBox="0 0 84.443611 37.122166"
   version="1.1"
   id="svg5"
   sodipodi:docname="solarpv.svg"
   inkscape:version="1.1 (c68e22c387, 2021-05-23)"
   inkscape:export-filename="/home/vlad/Documents/vlad-homework/IFT458/project/media/images/site/solarpv.png"
   inkscape:export-xdpi="96"
   inkscape:export-ydpi="96"
   xmlns:inkscape="http://www.inkscape.org/namespaces/inkscape"
   xmlns:sodipodi="http://sodipodi.sourceforge.net/DTD/sodipodi-0.dtd"
   xmlns="http://www.w3.org/2000/svg"
   xmlns:svg="http://www.w3.org/2000/svg">
  <sodipodi:namedview
     id="namedview7"
     pagecolor="#ffffff"
     bordercolor="#666666"
     borderopacity="1.0"
     inkscape:pageshadow="2"
     inkscape:pageopacity="0.0"
     inkscape:pagecheckerboard="0"
     inkscape:document-units="mm"
     showgrid="false"
     inkscape:snap-intersection-paths="true"
     inkscape:snap-text-baseline="false"
     inkscape:zoom="2.1997092"
     inkscape:cx="171.61359"
     inkscape:cy="222.52941"
     inkscape:window-width="1718"
     inkscape:window-height="1382"
     inkscape:window-x="1722"
     inkscape:window-y="32"
     inkscape:window-maximized="0"
     inkscape:current-layer="layer1"
     fit-margin-top="0"
     fit-margin-left="0"
     fit-margin-right="0"
     fit-margin-bottom="0" />
  <defs
     id="defs2">
    <pattern
       inkscape:collect="always"
       patternUnits="userSpaceOnUse"
       width="2"
       height="2"
       patternTransform="translate(0,0) scale(10,10)"
       id="Checkerboardwhite"
       inkscape:stockid="Checkerboard white">
      <rect
         style="fill:white;stroke:none"
         x="0"
         y="0"
         width="1"
         height="1"
         id="rect52295" />
      <rect
         style="fill:white;stroke:none"
         x="1"
         y="1"
         width="1"
         height="1"
         id="rect52297" />
    </pattern>
    <linearGradient
       id="linearGradient53252"
       inkscape:swatch="solid">
      <stop
         style="stop-color:#ff0000;stop-opacity:1;"
         offset="0"
         id="stop53250" />
    </linearGradient>
  </defs>
  <g
     inkscape:label="Layer 1"
     inkscape:groupmode="layer"
     id="layer1"
     transform="translate(-32.57225,-47.451194)">
    <rect
       style="fill:#ffffff;fill-opacity:1;stroke:#000000;stroke-width:0.290323;stroke-opacity:1"
       id="rect35161"
       width="84.15329"
       height="20.725451"
       x="32.717411"
       y="61.354889"
       ry="3.0554719"
       rx="3.0554719" />
    <text
       xml:space="preserve"
       style="font-style:normal;font-variant:normal;font-weight:normal;font-stretch:normal;font-size:18.0767px;line-height:1.25;font-family:Comfortaa;-inkscape-font-specification:'Comfortaa, Normal';font-variant-ligatures:normal;font-variant-caps:normal;font-variant-numeric:normal;font-variant-east-asian:normal;fill:#000000;fill-opacity:1;stroke:none;stroke-width:0.451918"
       x="33.479424"
       y="76.922409"
       id="text1749"
       transform="scale(0.98738107,1.0127802)"><tspan
         sodipodi:role="line"
         id="tspan1747"
         style="font-style:normal;font-variant:normal;font-weight:normal;font-stretch:normal;font-size:18.0767px;font-family:Comfortaa;-inkscape-font-specification:'Comfortaa, Normal';font-variant-ligatures:normal;font-variant-caps:normal;font-variant-numeric:normal;font-variant-east-asian:normal;stroke-width:0.451918"
         x="33.479424"
         y="76.922409">solar  </tspan></text>
    <text
       xml:space="preserve"
       style="font-style:normal;font-weight:normal;font-size:10.5833px;line-height:1.25;font-family:sans-serif;fill:#000000;fill-opacity:1;stroke:none;stroke-width:0.264583"
       x="93.674271"
       y="72.681183"
       id="text28679"><tspan
         sodipodi:role="line"
         id="tspan28677"
         style="stroke-width:0.264583"
         x="93.674271"
         y="72.681183" /></text>
    <path
       style="fill:#ffff00;fill-opacity:1;stroke:#000000;stroke-width:1.5874;stroke-miterlimit:4;stroke-dasharray:none;stroke-opacity:1"
       d="m 308.22769,293.36942 10.46106,-20.37179 -21.65553,-27.0657 -21.65554,-27.06569 2.66601,-2.82812 c 10.83228,-11.49091 33.76132,-36.05094 33.90046,-35.91181 0.0936,0.0936 -8.22129,12.44629 -13.75645,21.54366 -5.53516,9.09738 -10.14405,16.67373 -10.24198,16.83634 -0.0979,0.1626 11.29237,11.38734 25.3118,24.94385 l 25.48987,24.64821 -1.10231,1.19596 c -0.60626,0.65778 -9.65512,10.91316 -20.10856,22.78973 -10.45344,11.87657 -22.73825,26.80004 -22.94825,27.03757 4.13915,-9.42911 9.9234,-18.51129 13.63942,-25.75221 z"
       id="path42120"
       transform="scale(0.26458333)"
       sodipodi:nodetypes="ccccssssscsscc" />
    <path
       style="fill:#ff0000;fill-opacity:1;stroke:#000000;stroke-width:1.6252;stroke-miterlimit:4;stroke-dasharray:none;stroke-opacity:1"
       d="m 303.39238,309.53705 c 0,-0.0593 0.0472,-0.13691 0.1049,-0.17257 0.0577,-0.0357 0.13964,-0.22297 0.18209,-0.41625 0.0757,-0.3448 1.83861,-2.47649 7.60222,-9.1927 4.03684,-4.70404 18.66432,-21.35138 24.95247,-28.39807 1.4709,-1.64835 2.72514,-3.06739 2.78719,-3.15343 0.0848,-0.11759 -0.0422,-0.30806 -0.51143,-0.76708 -0.34334,-0.33586 -6.12213,-5.92149 -12.84177,-12.41251 -6.71964,-6.49103 -14.69278,-14.20753 -17.71808,-17.14779 l -5.50056,-5.34591 8.96693,-0.0292 c 4.9318,-0.0161 34.02705,-0.0156 64.6561,9.5e-4 l 55.68918,0.0302 0.94261,0.25424 c 4.13314,1.11478 7.07722,4.07958 8.12256,8.17972 l 0.25424,0.99721 v 29.09476 29.09475 l -0.25424,0.99722 c -1.04533,4.1001 -3.98882,7.06436 -8.12256,8.17983 l -0.94261,0.25436 -64.18462,0.03 c -40.38551,0.0189 -64.18462,-0.01 -64.18462,-0.0777 z m 47.46083,-15.40792 c 0.26686,-0.15639 0.59695,-0.44128 0.73353,-0.63309 0.5599,-0.78632 0.56208,-0.82398 0.56208,-9.72659 v -8.33532 l 5.71098,-0.003 c 7.09558,-0.004 8.2835,-0.10533 10.88212,-0.93151 2.29826,-0.73069 4.35509,-1.96835 6.15484,-3.70359 3.4982,-3.37279 5.30858,-8.28051 5.05986,-13.71666 -0.22284,-4.8704 -1.89228,-8.93447 -4.90233,-11.9342 -2.78537,-2.77581 -6.14328,-4.29982 -10.38745,-4.71441 -1.60481,-0.15677 -15.17468,-0.15217 -15.90935,0.005 -0.6878,0.14751 -1.44097,0.75822 -1.73592,1.40759 -0.20137,0.44333 -0.20937,1.42067 -0.20937,25.5779 0,24.08257 0.009,25.13568 0.20764,25.57156 0.2866,0.62747 0.87802,1.17018 1.48946,1.36677 0.71592,0.23018 1.7271,0.13056 2.34391,-0.23091 z m 55.43013,0.27659 c 0.49469,-0.13737 1.25919,-0.78049 1.51436,-1.27393 0.39811,-0.76986 20.39755,-49.01649 20.49685,-49.44658 0.23832,-1.03227 0.075,-1.89722 -0.47698,-2.52588 -0.544,-0.61958 -0.93385,-0.77647 -1.92131,-0.77318 -0.73163,0.002 -0.94541,0.0502 -1.3892,0.31027 -0.31981,0.18742 -0.63287,0.49472 -0.80213,0.78738 -0.15269,0.264 -3.48325,8.35604 -7.40123,17.98232 -10.5296,25.87059 -10.66321,26.19664 -10.73514,26.19664 -0.0365,0 -4.07974,-9.85283 -8.98501,-21.89519 -4.90527,-12.04235 -9.03823,-22.08128 -9.18437,-22.30872 -0.55915,-0.87029 -1.63329,-1.27215 -2.76974,-1.03622 -1.32142,0.27432 -1.9084,1.02993 -1.9084,2.45667 0,0.49889 0.082,1.04676 0.21337,1.42498 0.26518,0.7637 20.07204,48.29986 20.36139,48.86704 0.26106,0.5117 0.92183,1.10333 1.33363,1.19407 0.17075,0.0376 0.3616,0.0855 0.42411,0.10632 0.24064,0.0803 0.81384,0.0495 1.2298,-0.066 z"
       id="path46094"
       transform="scale(0.26458333)" />
    <path
       style="fill:#ff0000;fill-opacity:1;stroke:#000000;stroke-width:1.6252;stroke-miterlimit:4;stroke-dasharray:none;stroke-opacity:1"
       d="m 352.14882,257.87422 v -12.23046 l 6.39289,0.0402 6.39289,0.0402 1.10308,0.29983 c 2.14908,0.58414 3.88231,1.5787 5.31823,3.05169 2.96663,3.04324 4.13718,8.07806 2.90949,12.51444 -0.60188,2.17498 -1.4285,3.60889 -2.96785,5.14824 -1.58943,1.58943 -3.06027,2.41376 -5.41359,3.03405 -0.91399,0.2409 -1.1875,0.25175 -7.34225,0.29129 l -6.39289,0.0411 z"
       id="path48576"
       transform="scale(0.26458333)" />
    <path
       style="fill:url(#Checkerboardwhite);fill-opacity:1.0;stroke:#000000;stroke-width:0.738823;stroke-miterlimit:4;stroke-dasharray:none;stroke-opacity:1"
       d="M 8.9656346,129.57635 C 6.19008,128.70964 4.2696729,127.08082 2.7159848,124.27563 L 1.3638166,121.83429 V 92.057623 c 0,-27.740522 0.056754,-29.923752 0.8299725,-31.927695 0.990773,-2.567778 4.0201814,-5.411251 6.5832088,-6.179152 1.3366761,-0.400478 20.7804111,-0.534624 77.4908231,-0.534624 h 75.706409 l 16.16142,20.196802 16.16141,20.196802 -5.56274,10.830024 c -3.0595,5.95652 -7.39614,14.14746 -9.63696,18.20209 l -4.07423,7.37206 -82.056296,-0.0151 C 25.812884,130.18643 10.557318,130.0734 8.9656346,129.57638 Z M 28.037456,114.36096 c 6.537358,-2.47458 9.271834,-9.00337 6.149496,-14.682448 -1.687492,-3.069294 -5.553213,-5.060537 -12.593189,-6.486782 -7.674547,-1.554805 -10.380952,-4.14218 -8.380054,-8.01149 1.003501,-1.940557 3.803683,-3.103971 7.470843,-3.103971 3.365495,0 5.759917,0.920718 8.097306,3.113624 1.044021,0.979486 1.956796,1.412463 2.977666,1.412463 4.256568,0 3.116903,-4.669573 -1.850093,-7.580426 -3.963045,-2.3225 -9.204987,-2.965386 -14.016376,-1.719008 -5.120926,1.326563 -8.176495,4.389969 -8.6881958,8.71048 -0.3423353,2.890487 0.4080057,5.207633 2.4005227,7.41311 1.9048421,2.108433 4.5381531,3.266041 10.7897941,4.743211 5.397886,1.27544 6.8194,1.886327 8.449546,3.631157 2.073031,2.21886 1.150074,5.77432 -1.913625,7.37175 -0.843091,0.4396 -2.948001,0.85564 -4.921359,0.97274 -4.495875,0.26678 -7.669192,-0.65419 -10.580447,-3.0707 -2.5358905,-2.10493 -2.9122507,-2.17867 -4.5489002,-0.89128 -1.6862392,1.3264 -1.5610809,2.92659 0.3714564,4.74921 4.6670368,4.40158 14.1029698,5.95794 20.7856088,3.42836 z m 37.289715,0.825 C 75.169641,113.09761 81.070107,104.08803 79.729843,93.194137 78.396913,82.359882 68.65052,75.128817 57.871786,76.977164 49.452632,78.420888 43.605418,84.557236 42.350856,93.265572 40.342447,107.2066 51.730142,118.07095 65.327171,115.18596 Z m 61.826359,4.6e-4 c 3.16444,-0.67073 5.46087,-1.86856 7.90951,-4.12564 l 2.00053,-1.84394 v 2.18148 c 0,2.5652 0.92014,3.84419 2.76562,3.84419 2.59792,0 2.68965,-0.41035 2.68965,-12.03164 0,-9.345864 -0.10863,-10.954569 -0.91629,-13.569461 -4.02766,-13.04006 -20.76136,-17.257636 -30.88826,-7.785107 -3.72151,3.481035 -5.92771,8.885186 -5.92771,14.520074 0,12.606504 10.39422,21.347824 22.36695,18.810114 z m -26.0038,-0.85313 c 1.03179,-1.03178 1.18122,-2.66487 0.34096,-3.72626 -0.32029,-0.40457 -1.552316,-0.81958 -2.823348,-0.95104 -2.546682,-0.26341 -3.573754,-1.18596 -4.32283,-3.88293 -0.283843,-1.02193 -0.46438,-9.80527 -0.46593,-22.668119 l -0.0025,-20.999728 -1.010365,-0.707686 c -1.365108,-0.956161 -2.444114,-0.890053 -3.551779,0.217612 -0.909443,0.909445 -0.923072,1.312499 -0.79556,23.525836 l 0.12974,22.600535 1.201027,2.27303 c 0.660569,1.25017 1.587233,2.62196 2.059254,3.04844 2.446424,2.21034 7.593786,2.9179 9.241371,1.27031 z m 56.11132,0.19483 c 0.61217,-0.61217 0.71438,-2.37696 0.71438,-12.33525 0,-13.193539 0.21453,-14.462752 2.88214,-17.051584 2.24241,-2.176182 5.22973,-3.084985 10.14063,-3.084985 3.35623,0 3.82101,-0.103456 4.2749,-0.951554 0.28009,-0.523354 0.39509,-1.406407 0.25556,-1.96234 -0.40842,-1.627293 -2.29986,-2.31407 -6.37312,-2.31407 -4.16475,0 -6.83137,1.006623 -9.61084,3.627999 l -1.56927,1.480019 v -1.609002 c 0,-2.737577 -2.18989,-4.078091 -4.57594,-2.801113 -0.84673,0.453157 -0.87933,1.140672 -0.87933,18.547907 0,13.453983 0.13952,18.216823 0.54553,18.622833 0.77811,0.77811 3.35198,0.67452 4.19536,-0.16886 z"
       id="path53195"
       transform="matrix(0.26458333,0,0,0.26458333,32.57225,47.451194)" />
    <rect
       style="fill:#999999;fill-opacity:1;stroke:#000000;stroke-width:0.423267;stroke-miterlimit:4;stroke-dasharray:none;stroke-opacity:1"
       id="rect54515"
       width="44.557724"
       height="25.016171"
       x="39.699192"
       y="118.62656"
       rx="0"
       ry="0" />
  </g>
</svg>
